<svg xmlns="http://www.w3.org/2000/svg" xmlns:xlink="http://www.w3.org/1999/xlink" contentStyleType="text/css" height="473px" preserveAspectRatio="none" style="width:763px;height:473px;background:#FFFFFF;" version="1.1" viewBox="0 0 763 473" width="763px" zoomAndPan="magnify"><defs/><g><rect fill="none" height="250.4395" style="stroke:#000000;stroke-width:1.5;" width="746.1572" x="10" y="170.7305"/><line style="stroke:#181818;stroke-width:0.5;stroke-dasharray:5.0,5.0;" x1="42" x2="42" y1="36.4883" y2="438.1699"/><line style="stroke:#181818;stroke-width:0.5;stroke-dasharray:5.0,5.0;" x1="178.3364" x2="178.3364" y1="36.4883" y2="438.1699"/><line style="stroke:#181818;stroke-width:0.5;stroke-dasharray:5.0,5.0;" x1="315.0049" x2="315.0049" y1="36.4883" y2="438.1699"/><line style="stroke:#181818;stroke-width:0.5;stroke-dasharray:5.0,5.0;" x1="491.959" x2="491.959" y1="36.4883" y2="438.1699"/><line style="stroke:#181818;stroke-width:0.5;stroke-dasharray:5.0,5.0;" x1="666.5684" x2="666.5684" y1="36.4883" y2="438.1699"/><rect fill="#E2E2F0" height="30.4883" rx="2.5" ry="2.5" style="stroke:#181818;stroke-width:0.5;" width="44.3652" x="20" y="5"/><text fill="#000000" font-family="sans-serif" font-size="14" lengthAdjust="spacing" textLength="30.3652" x="27" y="25.5352">User</text><rect fill="#E2E2F0" height="30.4883" rx="2.5" ry="2.5" style="stroke:#181818;stroke-width:0.5;" width="44.3652" x="20" y="437.1699"/><text fill="#000000" font-family="sans-serif" font-size="14" lengthAdjust="spacing" textLength="30.3652" x="27" y="457.7051">User</text><rect fill="#E2E2F0" height="30.4883" rx="2.5" ry="2.5" style="stroke:#181818;stroke-width:0.5;" width="124.6807" x="116.3364" y="5"/><text fill="#000000" font-family="sans-serif" font-size="14" lengthAdjust="spacing" textLength="110.6807" x="123.3364" y="25.5352">CarManagement</text><rect fill="#E2E2F0" height="30.4883" rx="2.5" ry="2.5" style="stroke:#181818;stroke-width:0.5;" width="124.6807" x="116.3364" y="437.1699"/><text fill="#000000" font-family="sans-serif" font-size="14" lengthAdjust="spacing" textLength="110.6807" x="123.3364" y="457.7051">CarManagement</text><rect fill="#E2E2F0" height="30.4883" rx="2.5" ry="2.5" style="stroke:#181818;stroke-width:0.5;" width="68.332" x="281.0049" y="5"/><text fill="#000000" font-family="sans-serif" font-size="14" lengthAdjust="spacing" textLength="54.332" x="288.0049" y="25.5352">CarData</text><rect fill="#E2E2F0" height="30.4883" rx="2.5" ry="2.5" style="stroke:#181818;stroke-width:0.5;" width="68.332" x="281.0049" y="437.1699"/><text fill="#000000" font-family="sans-serif" font-size="14" lengthAdjust="spacing" textLength="54.332" x="288.0049" y="457.7051">CarData</text><rect fill="#E2E2F0" height="30.4883" rx="2.5" ry="2.5" style="stroke:#181818;stroke-width:0.5;" width="171.6094" x="406.959" y="5"/><text fill="#000000" font-family="sans-serif" font-size="14" lengthAdjust="spacing" textLength="157.6094" x="413.959" y="25.5352">CarMetadataRepository</text><rect fill="#E2E2F0" height="30.4883" rx="2.5" ry="2.5" style="stroke:#181818;stroke-width:0.5;" width="171.6094" x="406.959" y="437.1699"/><text fill="#000000" font-family="sans-serif" font-size="14" lengthAdjust="spacing" textLength="157.6094" x="413.959" y="457.7051">CarMetadataRepository</text><rect fill="#E2E2F0" height="30.4883" rx="2.5" ry="2.5" style="stroke:#181818;stroke-width:0.5;" width="157.5889" x="588.5684" y="5"/><text fill="#000000" font-family="sans-serif" font-size="14" lengthAdjust="spacing" textLength="143.5889" x="595.5684" y="25.5352">CarVariantRepository</text><rect fill="#E2E2F0" height="30.4883" rx="2.5" ry="2.5" style="stroke:#181818;stroke-width:0.5;" width="157.5889" x="588.5684" y="437.1699"/><text fill="#000000" font-family="sans-serif" font-size="14" lengthAdjust="spacing" textLength="143.5889" x="595.5684" y="457.7051">CarVariantRepository</text><polygon fill="#181818" points="166.6768,63.7988,176.6768,67.7988,166.6768,71.7988,170.6768,67.7988" style="stroke:#181818;stroke-width:1.0;"/><line style="stroke:#181818;stroke-width:1.0;" x1="42.1826" x2="172.6768" y1="67.7988" y2="67.7988"/><text fill="#000000" font-family="sans-serif" font-size="13" font-weight="bold" lengthAdjust="spacing" textLength="8.5757" x="49.1826" y="63.0566">1</text><text fill="#000000" font-family="sans-serif" font-size="13" lengthAdjust="spacing" textLength="99.9185" x="61.7583" y="63.0566">Add Car Variant</text><polygon fill="#181818" points="303.1709,93.1094,313.1709,97.1094,303.1709,101.1094,307.1709,97.1094" style="stroke:#181818;stroke-width:1.0;"/><line style="stroke:#181818;stroke-width:1.0;" x1="178.6768" x2="309.1709" y1="97.1094" y2="97.1094"/><text fill="#000000" font-family="sans-serif" font-size="13" font-weight="bold" lengthAdjust="spacing" textLength="8.5757" x="185.6768" y="92.3672">2</text><text fill="#000000" font-family="sans-serif" font-size="13" lengthAdjust="spacing" textLength="99.9185" x="198.2524" y="92.3672">Add Car Variant</text><polygon fill="#181818" points="480.7637,122.4199,490.7637,126.4199,480.7637,130.4199,484.7637,126.4199" style="stroke:#181818;stroke-width:1.0;"/><line style="stroke:#181818;stroke-width:1.0;" x1="315.1709" x2="486.7637" y1="126.4199" y2="126.4199"/><text fill="#000000" font-family="sans-serif" font-size="13" font-weight="bold" lengthAdjust="spacing" textLength="8.5757" x="322.1709" y="121.6777">3</text><text fill="#000000" font-family="sans-serif" font-size="13" lengthAdjust="spacing" textLength="44.77" x="334.7466" y="121.6777">Get car</text><polygon fill="#181818" points="326.1709,151.7305,316.1709,155.7305,326.1709,159.7305,322.1709,155.7305" style="stroke:#181818;stroke-width:1.0;"/><line style="stroke:#181818;stroke-width:1.0;stroke-dasharray:2.0,2.0;" x1="320.1709" x2="491.7637" y1="155.7305" y2="155.7305"/><text fill="#000000" font-family="sans-serif" font-size="13" font-weight="bold" lengthAdjust="spacing" textLength="8.5757" x="332.1709" y="150.9883">4</text><text fill="#000000" font-family="sans-serif" font-size="13" lengthAdjust="spacing" textLength="65.0508" x="344.7466" y="150.9883">Return car</text><path d="M10,170.7305 L72.1387,170.7305 L72.1387,178.041 L62.1387,188.041 L10,188.041 L10,170.7305 " fill="#EEEEEE" style="stroke:#000000;stroke-width:1.5;"/><rect fill="none" height="250.4395" style="stroke:#000000;stroke-width:1.5;" width="746.1572" x="10" y="170.7305"/><text fill="#000000" font-family="sans-serif" font-size="13" font-weight="bold" lengthAdjust="spacing" textLength="17.1387" x="25" y="184.2988">alt</text><text fill="#000000" font-family="sans-serif" font-size="11" font-weight="bold" lengthAdjust="spacing" textLength="72.1821" x="87.1387" y="183.3652">[car present]</text><line style="stroke:#181818;stroke-width:1.0;" x1="315.1709" x2="357.1709" y1="209.3516" y2="209.3516"/><line style="stroke:#181818;stroke-width:1.0;" x1="357.1709" x2="357.1709" y1="209.3516" y2="222.3516"/><line style="stroke:#181818;stroke-width:1.0;" x1="316.1709" x2="357.1709" y1="222.3516" y2="222.3516"/><polygon fill="#181818" points="326.1709,218.3516,316.1709,222.3516,326.1709,226.3516,322.1709,222.3516" style="stroke:#181818;stroke-width:1.0;"/><text fill="#000000" font-family="sans-serif" font-size="13" font-weight="bold" lengthAdjust="spacing" textLength="8.5757" x="322.1709" y="204.6094">5</text><text fill="#000000" font-family="sans-serif" font-size="13" lengthAdjust="spacing" textLength="151.0171" x="334.7466" y="204.6094">Create car variant entity</text><polygon fill="#181818" points="655.3628,247.6621,665.3628,251.6621,655.3628,255.6621,659.3628,251.6621" style="stroke:#181818;stroke-width:1.0;"/><line style="stroke:#181818;stroke-width:1.0;" x1="315.1709" x2="661.3628" y1="251.6621" y2="251.6621"/><text fill="#000000" font-family="sans-serif" font-size="13" font-weight="bold" lengthAdjust="spacing" textLength="8.5757" x="322.1709" y="246.9199">6</text><text fill="#000000" font-family="sans-serif" font-size="13" lengthAdjust="spacing" textLength="98.6299" x="334.7466" y="246.9199">Save car variant</text><polygon fill="#181818" points="326.1709,276.9727,316.1709,280.9727,326.1709,284.9727,322.1709,280.9727" style="stroke:#181818;stroke-width:1.0;"/><line style="stroke:#181818;stroke-width:1.0;stroke-dasharray:2.0,2.0;" x1="320.1709" x2="666.3628" y1="280.9727" y2="280.9727"/><text fill="#000000" font-family="sans-serif" font-size="13" font-weight="bold" lengthAdjust="spacing" textLength="8.5757" x="332.1709" y="276.2305">7</text><text fill="#000000" font-family="sans-serif" font-size="13" lengthAdjust="spacing" textLength="48.8833" x="344.7466" y="276.2305">Success</text><polygon fill="#181818" points="189.6768,306.2832,179.6768,310.2832,189.6768,314.2832,185.6768,310.2832" style="stroke:#181818;stroke-width:1.0;"/><line style="stroke:#181818;stroke-width:1.0;stroke-dasharray:2.0,2.0;" x1="183.6768" x2="314.1709" y1="310.2832" y2="310.2832"/><text fill="#000000" font-family="sans-serif" font-size="13" font-weight="bold" lengthAdjust="spacing" textLength="8.5757" x="195.6768" y="305.541">8</text><text fill="#000000" font-family="sans-serif" font-size="13" lengthAdjust="spacing" textLength="48.8833" x="208.2524" y="305.541">Success</text><polygon fill="#181818" points="53.1826,335.5938,43.1826,339.5938,53.1826,343.5938,49.1826,339.5938" style="stroke:#181818;stroke-width:1.0;"/><line style="stroke:#181818;stroke-width:1.0;stroke-dasharray:2.0,2.0;" x1="47.1826" x2="177.6768" y1="339.5938" y2="339.5938"/><text fill="#000000" font-family="sans-serif" font-size="13" font-weight="bold" lengthAdjust="spacing" textLength="8.5757" x="59.1826" y="334.8516">9</text><text fill="#000000" font-family="sans-serif" font-size="13" lengthAdjust="spacing" textLength="48.8833" x="71.7583" y="334.8516">Success</text><line style="stroke:#000000;stroke-width:1.0;stroke-dasharray:2.0,2.0;" x1="10" x2="756.1572" y1="348.5938" y2="348.5938"/><text fill="#000000" font-family="sans-serif" font-size="11" font-weight="bold" lengthAdjust="spacing" textLength="67.2031" x="15" y="359.2285">[car absent]</text><polygon fill="#181818" points="189.6768,379.8594,179.6768,383.8594,189.6768,387.8594,185.6768,383.8594" style="stroke:#181818;stroke-width:1.0;"/><line style="stroke:#181818;stroke-width:1.0;stroke-dasharray:2.0,2.0;" x1="183.6768" x2="314.1709" y1="383.8594" y2="383.8594"/><text fill="#000000" font-family="sans-serif" font-size="13" font-weight="bold" lengthAdjust="spacing" textLength="17.1514" x="195.6768" y="379.1172">10</text><text fill="#000000" font-family="sans-serif" font-size="13" lengthAdjust="spacing" textLength="80.7422" x="216.8281" y="379.1172">Invalid car id</text><polygon fill="#181818" points="53.1826,409.1699,43.1826,413.1699,53.1826,417.1699,49.1826,413.1699" style="stroke:#181818;stroke-width:1.0;"/><line style="stroke:#181818;stroke-width:1.0;stroke-dasharray:2.0,2.0;" x1="47.1826" x2="177.6768" y1="413.1699" y2="413.1699"/><text fill="#000000" font-family="sans-serif" font-size="13" font-weight="bold" lengthAdjust="spacing" textLength="17.1514" x="59.1826" y="408.4277">11</text><text fill="#000000" font-family="sans-serif" font-size="13" lengthAdjust="spacing" textLength="80.7422" x="80.334" y="408.4277">Invalid car id</text><!--SRC=[TP2zRiCm38HtFWMtJgvt3m6A50WwT4cGx8n4908asQ4e0tdx-2T5xDWTfVjuFDx7LRL9LLasdgBcu3zD7Sh4jypHS64TNOG206MjOmvd5e1ZOi5YWrkINufquS1HA_oojl_24udhl60cF_blKbebU-7FavLizznpKoUdjTmhtB6Y8O5L6Okf-PurInneyiCKDiA95tj6V2jCoWFMZd6mGvtUt-Xdrcce0xMpGLZ3vk4EsHXEwUMzh762JElhmBxtbyu-ZTlfF3zkQVaJM_BE3hIp_pc_KHmjm0C0]--></g></svg>