<svg xmlns="http://www.w3.org/2000/svg" xmlns:xlink="http://www.w3.org/1999/xlink" contentStyleType="text/css" height="543px" preserveAspectRatio="none" style="width:938px;height:543px;background:#FFFFFF;" version="1.1" viewBox="0 0 938 543" width="938px" zoomAndPan="magnify"><defs/><g><rect fill="none" height="349.416" style="stroke:#000000;stroke-width:1.5;" width="838.3726" x="94.396" y="112.1094"/><line style="stroke:#181818;stroke-width:0.5;stroke-dasharray:5.0,5.0;" x1="27" x2="27" y1="36.4883" y2="507.8359"/><line style="stroke:#181818;stroke-width:0.5;stroke-dasharray:5.0,5.0;" x1="166.396" x2="166.396" y1="36.4883" y2="507.8359"/><line style="stroke:#181818;stroke-width:0.5;stroke-dasharray:5.0,5.0;" x1="306.124" x2="306.124" y1="36.4883" y2="507.8359"/><line style="stroke:#181818;stroke-width:0.5;stroke-dasharray:5.0,5.0;" x1="498.8076" x2="498.8076" y1="36.4883" y2="507.8359"/><line style="stroke:#181818;stroke-width:0.5;stroke-dasharray:5.0,5.0;" x1="673.417" x2="673.417" y1="36.4883" y2="507.8359"/><line style="stroke:#181818;stroke-width:0.5;stroke-dasharray:5.0,5.0;" x1="842.0059" x2="842.0059" y1="36.4883" y2="507.8359"/><rect fill="#E2E2F0" height="30.4883" rx="2.5" ry="2.5" style="stroke:#181818;stroke-width:0.5;" width="44.3652" x="5" y="5"/><text fill="#000000" font-family="sans-serif" font-size="14" lengthAdjust="spacing" textLength="30.3652" x="12" y="25.5352">User</text><rect fill="#E2E2F0" height="30.4883" rx="2.5" ry="2.5" style="stroke:#181818;stroke-width:0.5;" width="44.3652" x="5" y="506.8359"/><text fill="#000000" font-family="sans-serif" font-size="14" lengthAdjust="spacing" textLength="30.3652" x="12" y="527.3711">User</text><rect fill="#E2E2F0" height="30.4883" rx="2.5" ry="2.5" style="stroke:#181818;stroke-width:0.5;" width="124.6807" x="104.396" y="5"/><text fill="#000000" font-family="sans-serif" font-size="14" lengthAdjust="spacing" textLength="110.6807" x="111.396" y="25.5352">CarManagement</text><rect fill="#E2E2F0" height="30.4883" rx="2.5" ry="2.5" style="stroke:#181818;stroke-width:0.5;" width="124.6807" x="104.396" y="506.8359"/><text fill="#000000" font-family="sans-serif" font-size="14" lengthAdjust="spacing" textLength="110.6807" x="111.396" y="527.3711">CarManagement</text><rect fill="#E2E2F0" height="30.4883" rx="2.5" ry="2.5" style="stroke:#181818;stroke-width:0.5;" width="68.332" x="272.124" y="5"/><text fill="#000000" font-family="sans-serif" font-size="14" lengthAdjust="spacing" textLength="54.332" x="279.124" y="25.5352">CarData</text><rect fill="#E2E2F0" height="30.4883" rx="2.5" ry="2.5" style="stroke:#181818;stroke-width:0.5;" width="68.332" x="272.124" y="506.8359"/><text fill="#000000" font-family="sans-serif" font-size="14" lengthAdjust="spacing" textLength="54.332" x="279.124" y="527.3711">CarData</text><rect fill="#E2E2F0" height="30.4883" rx="2.5" ry="2.5" style="stroke:#181818;stroke-width:0.5;" width="171.6094" x="413.8076" y="5"/><text fill="#000000" font-family="sans-serif" font-size="14" lengthAdjust="spacing" textLength="157.6094" x="420.8076" y="25.5352">CarMetadataRepository</text><rect fill="#E2E2F0" height="30.4883" rx="2.5" ry="2.5" style="stroke:#181818;stroke-width:0.5;" width="171.6094" x="413.8076" y="506.8359"/><text fill="#000000" font-family="sans-serif" font-size="14" lengthAdjust="spacing" textLength="157.6094" x="420.8076" y="527.3711">CarMetadataRepository</text><rect fill="#E2E2F0" height="30.4883" rx="2.5" ry="2.5" style="stroke:#181818;stroke-width:0.5;" width="157.5889" x="595.417" y="5"/><text fill="#000000" font-family="sans-serif" font-size="14" lengthAdjust="spacing" textLength="143.5889" x="602.417" y="25.5352">CarVariantRepository</text><rect fill="#E2E2F0" height="30.4883" rx="2.5" ry="2.5" style="stroke:#181818;stroke-width:0.5;" width="157.5889" x="595.417" y="506.8359"/><text fill="#000000" font-family="sans-serif" font-size="14" lengthAdjust="spacing" textLength="143.5889" x="602.417" y="527.3711">CarVariantRepository</text><rect fill="#E2E2F0" height="30.4883" rx="2.5" ry="2.5" style="stroke:#181818;stroke-width:0.5;" width="159.7627" x="763.0059" y="5"/><text fill="#000000" font-family="sans-serif" font-size="14" lengthAdjust="spacing" textLength="145.7627" x="770.0059" y="25.5352">CarFeatureRepository</text><rect fill="#E2E2F0" height="30.4883" rx="2.5" ry="2.5" style="stroke:#181818;stroke-width:0.5;" width="159.7627" x="763.0059" y="506.8359"/><text fill="#000000" font-family="sans-serif" font-size="14" lengthAdjust="spacing" textLength="145.7627" x="770.0059" y="527.3711">CarFeatureRepository</text><polygon fill="#181818" points="154.7363,63.7988,164.7363,67.7988,154.7363,71.7988,158.7363,67.7988" style="stroke:#181818;stroke-width:1.0;"/><line style="stroke:#181818;stroke-width:1.0;" x1="27.1826" x2="160.7363" y1="67.7988" y2="67.7988"/><text fill="#000000" font-family="sans-serif" font-size="13" font-weight="bold" lengthAdjust="spacing" textLength="8.5757" x="34.1826" y="63.0566">1</text><text fill="#000000" font-family="sans-serif" font-size="13" lengthAdjust="spacing" textLength="50.9399" x="46.7583" y="63.0566">Add Car</text><polygon fill="#181818" points="294.29,93.1094,304.29,97.1094,294.29,101.1094,298.29,97.1094" style="stroke:#181818;stroke-width:1.0;"/><line style="stroke:#181818;stroke-width:1.0;" x1="166.7363" x2="300.29" y1="97.1094" y2="97.1094"/><text fill="#000000" font-family="sans-serif" font-size="13" font-weight="bold" lengthAdjust="spacing" textLength="8.5757" x="173.7363" y="92.3672">2</text><text fill="#000000" font-family="sans-serif" font-size="13" lengthAdjust="spacing" textLength="48.604" x="186.312" y="92.3672">Add car</text><path d="M94.396,112.1094 L230.5737,112.1094 L230.5737,119.4199 L220.5737,129.4199 L94.396,129.4199 L94.396,112.1094 " fill="#EEEEEE" style="stroke:#000000;stroke-width:1.5;"/><rect fill="none" height="349.416" style="stroke:#000000;stroke-width:1.5;" width="838.3726" x="94.396" y="112.1094"/><text fill="#000000" font-family="sans-serif" font-size="13" font-weight="bold" lengthAdjust="spacing" textLength="91.1777" x="109.396" y="125.6777">Transactional</text><line style="stroke:#181818;stroke-width:1.0;" x1="306.29" x2="348.29" y1="150.7305" y2="150.7305"/><line style="stroke:#181818;stroke-width:1.0;" x1="348.29" x2="348.29" y1="150.7305" y2="163.7305"/><line style="stroke:#181818;stroke-width:1.0;" x1="307.29" x2="348.29" y1="163.7305" y2="163.7305"/><polygon fill="#181818" points="317.29,159.7305,307.29,163.7305,317.29,167.7305,313.29,163.7305" style="stroke:#181818;stroke-width:1.0;"/><text fill="#000000" font-family="sans-serif" font-size="13" font-weight="bold" lengthAdjust="spacing" textLength="8.5757" x="313.29" y="145.9883">3</text><text fill="#000000" font-family="sans-serif" font-size="13" lengthAdjust="spacing" textLength="166.7466" x="325.8657" y="145.9883">Create car metadata entity</text><line style="stroke:#181818;stroke-width:1.0;" x1="306.29" x2="348.29" y1="193.041" y2="193.041"/><line style="stroke:#181818;stroke-width:1.0;" x1="348.29" x2="348.29" y1="193.041" y2="206.041"/><line style="stroke:#181818;stroke-width:1.0;" x1="307.29" x2="348.29" y1="206.041" y2="206.041"/><polygon fill="#181818" points="317.29,202.041,307.29,206.041,317.29,210.041,313.29,206.041" style="stroke:#181818;stroke-width:1.0;"/><text fill="#000000" font-family="sans-serif" font-size="13" font-weight="bold" lengthAdjust="spacing" textLength="8.5757" x="313.29" y="188.2988">4</text><text fill="#000000" font-family="sans-serif" font-size="13" lengthAdjust="spacing" textLength="157.9424" x="325.8657" y="188.2988">Create list of car variants</text><line style="stroke:#181818;stroke-width:1.0;" x1="306.29" x2="348.29" y1="235.3516" y2="235.3516"/><line style="stroke:#181818;stroke-width:1.0;" x1="348.29" x2="348.29" y1="235.3516" y2="248.3516"/><line style="stroke:#181818;stroke-width:1.0;" x1="307.29" x2="348.29" y1="248.3516" y2="248.3516"/><polygon fill="#181818" points="317.29,244.3516,307.29,248.3516,317.29,252.3516,313.29,248.3516" style="stroke:#181818;stroke-width:1.0;"/><text fill="#000000" font-family="sans-serif" font-size="13" font-weight="bold" lengthAdjust="spacing" textLength="8.5757" x="313.29" y="230.6094">5</text><text fill="#000000" font-family="sans-serif" font-size="13" lengthAdjust="spacing" textLength="136.2715" x="325.8657" y="230.6094">Create list of features</text><polygon fill="#181818" points="487.6123,273.6621,497.6123,277.6621,487.6123,281.6621,491.6123,277.6621" style="stroke:#181818;stroke-width:1.0;"/><line style="stroke:#181818;stroke-width:1.0;" x1="306.29" x2="493.6123" y1="277.6621" y2="277.6621"/><text fill="#000000" font-family="sans-serif" font-size="13" font-weight="bold" lengthAdjust="spacing" textLength="8.5757" x="313.29" y="272.9199">6</text><text fill="#000000" font-family="sans-serif" font-size="13" lengthAdjust="spacing" textLength="51.4224" x="325.8657" y="272.9199">Save car</text><polygon fill="#181818" points="317.29,302.9727,307.29,306.9727,317.29,310.9727,313.29,306.9727" style="stroke:#181818;stroke-width:1.0;"/><line style="stroke:#181818;stroke-width:1.0;stroke-dasharray:2.0,2.0;" x1="311.29" x2="498.6123" y1="306.9727" y2="306.9727"/><text fill="#000000" font-family="sans-serif" font-size="13" font-weight="bold" lengthAdjust="spacing" textLength="8.5757" x="323.29" y="302.2305">7</text><text fill="#000000" font-family="sans-serif" font-size="13" lengthAdjust="spacing" textLength="48.8833" x="335.8657" y="302.2305">Success</text><polygon fill="#181818" points="662.2114,332.2832,672.2114,336.2832,662.2114,340.2832,666.2114,336.2832" style="stroke:#181818;stroke-width:1.0;"/><line style="stroke:#181818;stroke-width:1.0;" x1="306.29" x2="668.2114" y1="336.2832" y2="336.2832"/><text fill="#000000" font-family="sans-serif" font-size="13" font-weight="bold" lengthAdjust="spacing" textLength="8.5757" x="313.29" y="331.541">8</text><text fill="#000000" font-family="sans-serif" font-size="13" lengthAdjust="spacing" textLength="81.9863" x="325.8657" y="331.541">Save variants</text><polygon fill="#181818" points="317.29,361.5938,307.29,365.5938,317.29,369.5938,313.29,365.5938" style="stroke:#181818;stroke-width:1.0;"/><line style="stroke:#181818;stroke-width:1.0;stroke-dasharray:2.0,2.0;" x1="311.29" x2="673.2114" y1="365.5938" y2="365.5938"/><text fill="#000000" font-family="sans-serif" font-size="13" font-weight="bold" lengthAdjust="spacing" textLength="8.5757" x="323.29" y="360.8516">9</text><text fill="#000000" font-family="sans-serif" font-size="13" lengthAdjust="spacing" textLength="48.8833" x="335.8657" y="360.8516">Success</text><polygon fill="#181818" points="830.8872,390.9043,840.8872,394.9043,830.8872,398.9043,834.8872,394.9043" style="stroke:#181818;stroke-width:1.0;"/><line style="stroke:#181818;stroke-width:1.0;" x1="306.29" x2="836.8872" y1="394.9043" y2="394.9043"/><text fill="#000000" font-family="sans-serif" font-size="13" font-weight="bold" lengthAdjust="spacing" textLength="17.1514" x="313.29" y="390.1621">10</text><text fill="#000000" font-family="sans-serif" font-size="13" lengthAdjust="spacing" textLength="106.8564" x="334.4414" y="390.1621">Save car features</text><polygon fill="#181818" points="317.29,420.2148,307.29,424.2148,317.29,428.2148,313.29,424.2148" style="stroke:#181818;stroke-width:1.0;"/><line style="stroke:#181818;stroke-width:1.0;stroke-dasharray:2.0,2.0;" x1="311.29" x2="841.8872" y1="424.2148" y2="424.2148"/><text fill="#000000" font-family="sans-serif" font-size="13" font-weight="bold" lengthAdjust="spacing" textLength="17.1514" x="323.29" y="419.4727">11</text><text fill="#000000" font-family="sans-serif" font-size="13" lengthAdjust="spacing" textLength="48.8833" x="344.4414" y="419.4727">Success</text><polygon fill="#181818" points="177.7363,449.5254,167.7363,453.5254,177.7363,457.5254,173.7363,453.5254" style="stroke:#181818;stroke-width:1.0;"/><line style="stroke:#181818;stroke-width:1.0;stroke-dasharray:2.0,2.0;" x1="171.7363" x2="305.29" y1="453.5254" y2="453.5254"/><text fill="#000000" font-family="sans-serif" font-size="13" font-weight="bold" lengthAdjust="spacing" textLength="17.1514" x="183.7363" y="448.7832">12</text><text fill="#000000" font-family="sans-serif" font-size="13" lengthAdjust="spacing" textLength="94.4023" x="204.8877" y="448.7832">Return success</text><polygon fill="#181818" points="38.1826,485.8359,28.1826,489.8359,38.1826,493.8359,34.1826,489.8359" style="stroke:#181818;stroke-width:1.0;"/><line style="stroke:#181818;stroke-width:1.0;stroke-dasharray:2.0,2.0;" x1="32.1826" x2="165.7363" y1="489.8359" y2="489.8359"/><text fill="#000000" font-family="sans-serif" font-size="13" font-weight="bold" lengthAdjust="spacing" textLength="17.1514" x="44.1826" y="485.0938">13</text><text fill="#000000" font-family="sans-serif" font-size="13" lengthAdjust="spacing" textLength="94.4023" x="65.334" y="485.0938">Return success</text><!--SRC=[ZPAzRiCm38HtFOMsJevt3mM25DsovASxAp6k08joA2f0tZvox26sWZIZo8_7Er0VVo9zREgwxu0a-MvbWgyZdXEImSewQ1cyKf0aKFA_o4eT8xAkFlK6U0i4BNeaQVJQsg6aPkM9-mA1aJ2PQ3caNXyOA88H5mWwDK4pViC8WiE8zYXWXtxMT79zXNSkYWwd-zW5sELSyHt-b5-9SSbkfyqxx4Dq4lZQw3rSxhRKqxwk7hViap4Obwe_ex52zD5mmRmZ_3scUEPsbh3W_X4lxxt3B40wJYIINPu-pmn_fK1l]--></g></svg>