<svg xmlns="http://www.w3.org/2000/svg" xmlns:xlink="http://www.w3.org/1999/xlink" contentStyleType="text/css" height="690px" preserveAspectRatio="none" style="width:1033px;height:690px;background:#FFFFFF;" version="1.1" viewBox="0 0 1033 690" width="1033px" zoomAndPan="magnify"><defs/><g><rect fill="none" height="384.6367" style="stroke:#000000;stroke-width:1.5;" width="1006.3511" x="20" y="253.6621"/><rect fill="none" height="221.1289" style="stroke:#000000;stroke-width:1.5;" width="986.3511" x="30" y="336.5938"/><line style="stroke:#181818;stroke-width:0.5;stroke-dasharray:5.0,5.0;" x1="62" x2="62" y1="36.4883" y2="655.2988"/><line style="stroke:#181818;stroke-width:0.5;stroke-dasharray:5.0,5.0;" x1="213.2598" x2="213.2598" y1="36.4883" y2="655.2988"/><line style="stroke:#181818;stroke-width:0.5;stroke-dasharray:5.0,5.0;" x1="423.2437" x2="423.2437" y1="36.4883" y2="655.2988"/><line style="stroke:#181818;stroke-width:0.5;stroke-dasharray:5.0,5.0;" x1="610.3833" x2="610.3833" y1="36.4883" y2="655.2988"/><line style="stroke:#181818;stroke-width:0.5;stroke-dasharray:5.0,5.0;" x1="767.9722" x2="767.9722" y1="36.4883" y2="655.2988"/><line style="stroke:#181818;stroke-width:0.5;stroke-dasharray:5.0,5.0;" x1="925.5884" x2="925.5884" y1="36.4883" y2="655.2988"/><rect fill="#E2E2F0" height="30.4883" rx="2.5" ry="2.5" style="stroke:#181818;stroke-width:0.5;" width="44.3652" x="40" y="5"/><text fill="#000000" font-family="sans-serif" font-size="14" lengthAdjust="spacing" textLength="30.3652" x="47" y="25.5352">User</text><rect fill="#E2E2F0" height="30.4883" rx="2.5" ry="2.5" style="stroke:#181818;stroke-width:0.5;" width="44.3652" x="40" y="654.2988"/><text fill="#000000" font-family="sans-serif" font-size="14" lengthAdjust="spacing" textLength="30.3652" x="47" y="674.834">User</text><rect fill="#E2E2F0" height="30.4883" rx="2.5" ry="2.5" style="stroke:#181818;stroke-width:0.5;" width="124.6807" x="151.2598" y="5"/><text fill="#000000" font-family="sans-serif" font-size="14" lengthAdjust="spacing" textLength="110.6807" x="158.2598" y="25.5352">CarManagement</text><rect fill="#E2E2F0" height="30.4883" rx="2.5" ry="2.5" style="stroke:#181818;stroke-width:0.5;" width="124.6807" x="151.2598" y="654.2988"/><text fill="#000000" font-family="sans-serif" font-size="14" lengthAdjust="spacing" textLength="110.6807" x="158.2598" y="674.834">CarManagement</text><rect fill="#E2E2F0" height="30.4883" rx="2.5" ry="2.5" style="stroke:#181818;stroke-width:0.5;" width="68.332" x="389.2437" y="5"/><text fill="#000000" font-family="sans-serif" font-size="14" lengthAdjust="spacing" textLength="54.332" x="396.2437" y="25.5352">CarData</text><rect fill="#E2E2F0" height="30.4883" rx="2.5" ry="2.5" style="stroke:#181818;stroke-width:0.5;" width="68.332" x="389.2437" y="654.2988"/><text fill="#000000" font-family="sans-serif" font-size="14" lengthAdjust="spacing" textLength="54.332" x="396.2437" y="674.834">CarData</text><rect fill="#E2E2F0" height="30.4883" rx="2.5" ry="2.5" style="stroke:#181818;stroke-width:0.5;" width="157.5889" x="532.3833" y="5"/><text fill="#000000" font-family="sans-serif" font-size="14" lengthAdjust="spacing" textLength="143.5889" x="539.3833" y="25.5352">CarVariantRepository</text><rect fill="#E2E2F0" height="30.4883" rx="2.5" ry="2.5" style="stroke:#181818;stroke-width:0.5;" width="157.5889" x="532.3833" y="654.2988"/><text fill="#000000" font-family="sans-serif" font-size="14" lengthAdjust="spacing" textLength="143.5889" x="539.3833" y="674.834">CarVariantRepository</text><rect fill="#E2E2F0" height="30.4883" rx="2.5" ry="2.5" style="stroke:#181818;stroke-width:0.5;" width="136.6162" x="699.9722" y="5"/><text fill="#000000" font-family="sans-serif" font-size="14" lengthAdjust="spacing" textLength="122.6162" x="706.9722" y="25.5352">FeatureRepository</text><rect fill="#E2E2F0" height="30.4883" rx="2.5" ry="2.5" style="stroke:#181818;stroke-width:0.5;" width="136.6162" x="699.9722" y="654.2988"/><text fill="#000000" font-family="sans-serif" font-size="14" lengthAdjust="spacing" textLength="122.6162" x="706.9722" y="674.834">FeatureRepository</text><rect fill="#E2E2F0" height="30.4883" rx="2.5" ry="2.5" style="stroke:#181818;stroke-width:0.5;" width="159.7627" x="846.5884" y="5"/><text fill="#000000" font-family="sans-serif" font-size="14" lengthAdjust="spacing" textLength="145.7627" x="853.5884" y="25.5352">CarFeatureRepository</text><rect fill="#E2E2F0" height="30.4883" rx="2.5" ry="2.5" style="stroke:#181818;stroke-width:0.5;" width="159.7627" x="846.5884" y="654.2988"/><text fill="#000000" font-family="sans-serif" font-size="14" lengthAdjust="spacing" textLength="145.7627" x="853.5884" y="674.834">CarFeatureRepository</text><polygon fill="#181818" points="201.6001,63.7988,211.6001,67.7988,201.6001,71.7988,205.6001,67.7988" style="stroke:#181818;stroke-width:1.0;"/><line style="stroke:#181818;stroke-width:1.0;" x1="62.1826" x2="207.6001" y1="67.7988" y2="67.7988"/><text fill="#000000" font-family="sans-serif" font-size="13" font-weight="bold" lengthAdjust="spacing" textLength="8.5757" x="69.1826" y="63.0566">1</text><text fill="#000000" font-family="sans-serif" font-size="13" lengthAdjust="spacing" textLength="101.937" x="81.7583" y="63.0566">Add Car Feature</text><polygon fill="#181818" points="411.4097,93.1094,421.4097,97.1094,411.4097,101.1094,415.4097,97.1094" style="stroke:#181818;stroke-width:1.0;"/><line style="stroke:#181818;stroke-width:1.0;" x1="213.6001" x2="417.4097" y1="97.1094" y2="97.1094"/><text fill="#000000" font-family="sans-serif" font-size="13" font-weight="bold" lengthAdjust="spacing" textLength="8.5757" x="220.6001" y="92.3672">2</text><text fill="#000000" font-family="sans-serif" font-size="13" lengthAdjust="spacing" textLength="101.937" x="233.1758" y="92.3672">Add Car Feature</text><polygon fill="#181818" points="599.1777,122.4199,609.1777,126.4199,599.1777,130.4199,603.1777,126.4199" style="stroke:#181818;stroke-width:1.0;"/><line style="stroke:#181818;stroke-width:1.0;" x1="423.4097" x2="605.1777" y1="126.4199" y2="126.4199"/><text fill="#000000" font-family="sans-serif" font-size="13" font-weight="bold" lengthAdjust="spacing" textLength="8.5757" x="430.4097" y="121.6777">3</text><text fill="#000000" font-family="sans-serif" font-size="13" lengthAdjust="spacing" textLength="91.9775" x="442.9854" y="121.6777">Get car variant</text><polygon fill="#181818" points="434.4097,151.7305,424.4097,155.7305,434.4097,159.7305,430.4097,155.7305" style="stroke:#181818;stroke-width:1.0;"/><line style="stroke:#181818;stroke-width:1.0;stroke-dasharray:2.0,2.0;" x1="428.4097" x2="610.1777" y1="155.7305" y2="155.7305"/><text fill="#000000" font-family="sans-serif" font-size="13" font-weight="bold" lengthAdjust="spacing" textLength="8.5757" x="440.4097" y="150.9883">4</text><text fill="#000000" font-family="sans-serif" font-size="13" lengthAdjust="spacing" textLength="112.2583" x="452.9854" y="150.9883">Return car variant</text><polygon fill="#181818" points="756.2803,205.3516,766.2803,209.3516,756.2803,213.3516,760.2803,209.3516" style="stroke:#181818;stroke-width:1.0;"/><line style="stroke:#181818;stroke-width:1.0;" x1="423.4097" x2="762.2803" y1="209.3516" y2="209.3516"/><text fill="#000000" font-family="sans-serif" font-size="13" font-weight="bold" lengthAdjust="spacing" textLength="8.5757" x="430.4097" y="204.6094">5</text><text fill="#000000" font-family="sans-serif" font-size="13" lengthAdjust="spacing" textLength="70.3066" x="442.9854" y="204.6094">Get feature</text><polygon fill="#181818" points="434.4097,234.6621,424.4097,238.6621,434.4097,242.6621,430.4097,238.6621" style="stroke:#181818;stroke-width:1.0;"/><line style="stroke:#181818;stroke-width:1.0;stroke-dasharray:2.0,2.0;" x1="428.4097" x2="767.2803" y1="238.6621" y2="238.6621"/><text fill="#000000" font-family="sans-serif" font-size="13" font-weight="bold" lengthAdjust="spacing" textLength="8.5757" x="440.4097" y="233.9199">6</text><text fill="#000000" font-family="sans-serif" font-size="13" lengthAdjust="spacing" textLength="90.5874" x="452.9854" y="233.9199">Return feature</text><path d="M20,253.6621 L82.1387,253.6621 L82.1387,260.9727 L72.1387,270.9727 L20,270.9727 L20,253.6621 " fill="#EEEEEE" style="stroke:#000000;stroke-width:1.5;"/><rect fill="none" height="384.6367" style="stroke:#000000;stroke-width:1.5;" width="1006.3511" x="20" y="253.6621"/><text fill="#000000" font-family="sans-serif" font-size="13" font-weight="bold" lengthAdjust="spacing" textLength="17.1387" x="35" y="267.2305">alt</text><text fill="#000000" font-family="sans-serif" font-size="11" font-weight="bold" lengthAdjust="spacing" textLength="79.8145" x="97.1387" y="266.2969">[valid feature]</text><polygon fill="#181818" points="914.4697,288.2832,924.4697,292.2832,914.4697,296.2832,918.4697,292.2832" style="stroke:#181818;stroke-width:1.0;"/><line style="stroke:#181818;stroke-width:1.0;" x1="423.4097" x2="920.4697" y1="292.2832" y2="292.2832"/><text fill="#000000" font-family="sans-serif" font-size="13" font-weight="bold" lengthAdjust="spacing" textLength="8.5757" x="430.4097" y="287.541">7</text><text fill="#000000" font-family="sans-serif" font-size="13" lengthAdjust="spacing" textLength="218.6514" x="442.9854" y="287.541">Get car feature for given feature id</text><polygon fill="#181818" points="434.4097,317.5938,424.4097,321.5938,434.4097,325.5938,430.4097,321.5938" style="stroke:#181818;stroke-width:1.0;"/><line style="stroke:#181818;stroke-width:1.0;stroke-dasharray:2.0,2.0;" x1="428.4097" x2="925.4697" y1="321.5938" y2="321.5938"/><text fill="#000000" font-family="sans-serif" font-size="13" font-weight="bold" lengthAdjust="spacing" textLength="8.5757" x="440.4097" y="316.8516">8</text><text fill="#000000" font-family="sans-serif" font-size="13" lengthAdjust="spacing" textLength="113.8579" x="452.9854" y="316.8516">Return car feature</text><path d="M30,336.5938 L92.1387,336.5938 L92.1387,343.9043 L82.1387,353.9043 L30,353.9043 L30,336.5938 " fill="#EEEEEE" style="stroke:#000000;stroke-width:1.5;"/><rect fill="none" height="221.1289" style="stroke:#000000;stroke-width:1.5;" width="986.3511" x="30" y="336.5938"/><text fill="#000000" font-family="sans-serif" font-size="13" font-weight="bold" lengthAdjust="spacing" textLength="17.1387" x="45" y="350.1621">alt</text><text fill="#000000" font-family="sans-serif" font-size="11" font-weight="bold" lengthAdjust="spacing" textLength="176.1182" x="107.1387" y="349.2285">[feature already present in car]</text><polygon fill="#181818" points="224.6001,371.2148,214.6001,375.2148,224.6001,379.2148,220.6001,375.2148" style="stroke:#181818;stroke-width:1.0;"/><line style="stroke:#181818;stroke-width:1.0;stroke-dasharray:2.0,2.0;" x1="218.6001" x2="422.4097" y1="375.2148" y2="375.2148"/><text fill="#000000" font-family="sans-serif" font-size="13" font-weight="bold" lengthAdjust="spacing" textLength="8.5757" x="230.6001" y="370.4727">9</text><text fill="#000000" font-family="sans-serif" font-size="13" lengthAdjust="spacing" textLength="173.2339" x="243.1758" y="370.4727">Return 409 Resource exists</text><line style="stroke:#000000;stroke-width:1.0;stroke-dasharray:2.0,2.0;" x1="30" x2="1016.3511" y1="384.2148" y2="384.2148"/><text fill="#000000" font-family="sans-serif" font-size="11" font-weight="bold" lengthAdjust="spacing" textLength="125.8555" x="35" y="394.8496">[feature absent in car]</text><line style="stroke:#181818;stroke-width:1.0;" x1="423.4097" x2="465.4097" y1="419.4805" y2="419.4805"/><line style="stroke:#181818;stroke-width:1.0;" x1="465.4097" x2="465.4097" y1="419.4805" y2="432.4805"/><line style="stroke:#181818;stroke-width:1.0;" x1="424.4097" x2="465.4097" y1="432.4805" y2="432.4805"/><polygon fill="#181818" points="434.4097,428.4805,424.4097,432.4805,434.4097,436.4805,430.4097,432.4805" style="stroke:#181818;stroke-width:1.0;"/><text fill="#000000" font-family="sans-serif" font-size="13" font-weight="bold" lengthAdjust="spacing" textLength="17.1514" x="430.4097" y="414.7383">10</text><text fill="#000000" font-family="sans-serif" font-size="13" lengthAdjust="spacing" textLength="152.6167" x="451.561" y="414.7383">Create car feature entity</text><polygon fill="#181818" points="914.4697,457.791,924.4697,461.791,914.4697,465.791,918.4697,461.791" style="stroke:#181818;stroke-width:1.0;"/><line style="stroke:#181818;stroke-width:1.0;" x1="423.4097" x2="920.4697" y1="461.791" y2="461.791"/><text fill="#000000" font-family="sans-serif" font-size="13" font-weight="bold" lengthAdjust="spacing" textLength="17.1514" x="430.4097" y="457.0488">11</text><text fill="#000000" font-family="sans-serif" font-size="13" lengthAdjust="spacing" textLength="100.2295" x="451.561" y="457.0488">Save car feature</text><polygon fill="#181818" points="434.4097,487.1016,424.4097,491.1016,434.4097,495.1016,430.4097,491.1016" style="stroke:#181818;stroke-width:1.0;"/><line style="stroke:#181818;stroke-width:1.0;stroke-dasharray:2.0,2.0;" x1="428.4097" x2="925.4697" y1="491.1016" y2="491.1016"/><text fill="#000000" font-family="sans-serif" font-size="13" font-weight="bold" lengthAdjust="spacing" textLength="17.1514" x="440.4097" y="486.3594">12</text><text fill="#000000" font-family="sans-serif" font-size="13" lengthAdjust="spacing" textLength="48.8833" x="461.561" y="486.3594">Success</text><polygon fill="#181818" points="224.6001,516.4121,214.6001,520.4121,224.6001,524.4121,220.6001,520.4121" style="stroke:#181818;stroke-width:1.0;"/><line style="stroke:#181818;stroke-width:1.0;stroke-dasharray:2.0,2.0;" x1="218.6001" x2="422.4097" y1="520.4121" y2="520.4121"/><text fill="#000000" font-family="sans-serif" font-size="13" font-weight="bold" lengthAdjust="spacing" textLength="17.1514" x="230.6001" y="515.6699">13</text><text fill="#000000" font-family="sans-serif" font-size="13" lengthAdjust="spacing" textLength="48.8833" x="251.7515" y="515.6699">Success</text><polygon fill="#181818" points="73.1826,545.7227,63.1826,549.7227,73.1826,553.7227,69.1826,549.7227" style="stroke:#181818;stroke-width:1.0;"/><line style="stroke:#181818;stroke-width:1.0;stroke-dasharray:2.0,2.0;" x1="67.1826" x2="212.6001" y1="549.7227" y2="549.7227"/><text fill="#000000" font-family="sans-serif" font-size="13" font-weight="bold" lengthAdjust="spacing" textLength="17.1514" x="79.1826" y="544.9805">14</text><text fill="#000000" font-family="sans-serif" font-size="13" lengthAdjust="spacing" textLength="48.8833" x="100.334" y="544.9805">Success</text><line style="stroke:#000000;stroke-width:1.0;stroke-dasharray:2.0,2.0;" x1="20" x2="1026.3511" y1="565.7227" y2="565.7227"/><text fill="#000000" font-family="sans-serif" font-size="11" font-weight="bold" lengthAdjust="spacing" textLength="90.6157" x="25" y="576.3574">[invalid feature]</text><polygon fill="#181818" points="224.6001,596.9883,214.6001,600.9883,224.6001,604.9883,220.6001,600.9883" style="stroke:#181818;stroke-width:1.0;"/><line style="stroke:#181818;stroke-width:1.0;stroke-dasharray:2.0,2.0;" x1="218.6001" x2="422.4097" y1="600.9883" y2="600.9883"/><text fill="#000000" font-family="sans-serif" font-size="13" font-weight="bold" lengthAdjust="spacing" textLength="17.1514" x="230.6001" y="596.2461">15</text><text fill="#000000" font-family="sans-serif" font-size="13" lengthAdjust="spacing" textLength="106.2661" x="251.7515" y="596.2461">Invalid feature Id</text><polygon fill="#181818" points="73.1826,626.2988,63.1826,630.2988,73.1826,634.2988,69.1826,630.2988" style="stroke:#181818;stroke-width:1.0;"/><line style="stroke:#181818;stroke-width:1.0;stroke-dasharray:2.0,2.0;" x1="67.1826" x2="212.6001" y1="630.2988" y2="630.2988"/><text fill="#000000" font-family="sans-serif" font-size="13" font-weight="bold" lengthAdjust="spacing" textLength="17.1514" x="79.1826" y="625.5566">16</text><text fill="#000000" font-family="sans-serif" font-size="13" lengthAdjust="spacing" textLength="106.2661" x="100.334" y="625.5566">Invalid feature Id</text><!--SRC=[ZL8xJyCm4DxzAsvZ2c5W8GCIAW9rO6a5-zM-1akE7Vo8oB_78KaJamJOBD_tFFlgtVlQ5NbUAzG-LEgQcoftz158Syg4nD9YnHW6RtIeJcGPUtLa8Rk77TeNr5XIHTeNy214TmLFX3vOOibum3-YnrLaDnWmRsXbp7AWsZZfZMqBU2OFF1AQViJMK93DBGuKbNL2GfM8G6t9KIyskW-1VbgVXvoByQhdYExy6bHIN6xIdXjcNSI106TZePGDNKH12hP6tIm_3pDgeBA4eXqN0F8REgLRFkqWU7jp5u_E1Ci9w5CwxnWfHvFoQLLm5cqNhJqb9ID3-lRlvHonIOZ_MCGnS4xE_LPj1fd_rWZillaq9otwhb9lFEfIUvz2OIysRLQWdIDZNm00]--></g></svg>