<svg xmlns="http://www.w3.org/2000/svg" xmlns:xlink="http://www.w3.org/1999/xlink" contentStyleType="text/css" height="310px" preserveAspectRatio="none" style="width:521px;height:310px;background:#FFFFFF;" version="1.1" viewBox="0 0 521 310" width="521px" zoomAndPan="magnify"><defs/><g><line style="stroke:#181818;stroke-width:0.5;stroke-dasharray:5.0,5.0;" x1="27" x2="27" y1="36.4883" y2="274.6621"/><line style="stroke:#181818;stroke-width:0.5;stroke-dasharray:5.0,5.0;" x1="157.8203" x2="157.8203" y1="36.4883" y2="274.6621"/><line style="stroke:#181818;stroke-width:0.5;stroke-dasharray:5.0,5.0;" x1="288.9727" x2="288.9727" y1="36.4883" y2="274.6621"/><line style="stroke:#181818;stroke-width:0.5;stroke-dasharray:5.0,5.0;" x1="446.9424" x2="446.9424" y1="36.4883" y2="274.6621"/><rect fill="#E2E2F0" height="30.4883" rx="2.5" ry="2.5" style="stroke:#181818;stroke-width:0.5;" width="44.3652" x="5" y="5"/><text fill="#000000" font-family="sans-serif" font-size="14" lengthAdjust="spacing" textLength="30.3652" x="12" y="25.5352">User</text><rect fill="#E2E2F0" height="30.4883" rx="2.5" ry="2.5" style="stroke:#181818;stroke-width:0.5;" width="44.3652" x="5" y="273.6621"/><text fill="#000000" font-family="sans-serif" font-size="14" lengthAdjust="spacing" textLength="30.3652" x="12" y="294.1973">User</text><rect fill="#E2E2F0" height="30.4883" rx="2.5" ry="2.5" style="stroke:#181818;stroke-width:0.5;" width="124.6807" x="95.8203" y="5"/><text fill="#000000" font-family="sans-serif" font-size="14" lengthAdjust="spacing" textLength="110.6807" x="102.8203" y="25.5352">CarManagement</text><rect fill="#E2E2F0" height="30.4883" rx="2.5" ry="2.5" style="stroke:#181818;stroke-width:0.5;" width="124.6807" x="95.8203" y="273.6621"/><text fill="#000000" font-family="sans-serif" font-size="14" lengthAdjust="spacing" textLength="110.6807" x="102.8203" y="294.1973">CarManagement</text><rect fill="#E2E2F0" height="30.4883" rx="2.5" ry="2.5" style="stroke:#181818;stroke-width:0.5;" width="68.332" x="254.9727" y="5"/><text fill="#000000" font-family="sans-serif" font-size="14" lengthAdjust="spacing" textLength="54.332" x="261.9727" y="25.5352">CarData</text><rect fill="#E2E2F0" height="30.4883" rx="2.5" ry="2.5" style="stroke:#181818;stroke-width:0.5;" width="68.332" x="254.9727" y="273.6621"/><text fill="#000000" font-family="sans-serif" font-size="14" lengthAdjust="spacing" textLength="54.332" x="261.9727" y="294.1973">CarData</text><rect fill="#E2E2F0" height="30.4883" rx="2.5" ry="2.5" style="stroke:#181818;stroke-width:0.5;" width="136.6162" x="378.9424" y="5"/><text fill="#000000" font-family="sans-serif" font-size="14" lengthAdjust="spacing" textLength="122.6162" x="385.9424" y="25.5352">FeatureRepository</text><rect fill="#E2E2F0" height="30.4883" rx="2.5" ry="2.5" style="stroke:#181818;stroke-width:0.5;" width="136.6162" x="378.9424" y="273.6621"/><text fill="#000000" font-family="sans-serif" font-size="14" lengthAdjust="spacing" textLength="122.6162" x="385.9424" y="294.1973">FeatureRepository</text><polygon fill="#181818" points="146.1606,63.7988,156.1606,67.7988,146.1606,71.7988,150.1606,67.7988" style="stroke:#181818;stroke-width:1.0;"/><line style="stroke:#181818;stroke-width:1.0;" x1="27.1826" x2="152.1606" y1="67.7988" y2="67.7988"/><text fill="#000000" font-family="sans-serif" font-size="13" font-weight="bold" lengthAdjust="spacing" textLength="8.5757" x="34.1826" y="63.0566">1</text><text fill="#000000" font-family="sans-serif" font-size="13" lengthAdjust="spacing" textLength="76.3306" x="46.7583" y="63.0566">Add Feature</text><polygon fill="#181818" points="277.1387,93.1094,287.1387,97.1094,277.1387,101.1094,281.1387,97.1094" style="stroke:#181818;stroke-width:1.0;"/><line style="stroke:#181818;stroke-width:1.0;" x1="158.1606" x2="283.1387" y1="97.1094" y2="97.1094"/><text fill="#000000" font-family="sans-serif" font-size="13" font-weight="bold" lengthAdjust="spacing" textLength="8.5757" x="165.1606" y="92.3672">2</text><text fill="#000000" font-family="sans-serif" font-size="13" lengthAdjust="spacing" textLength="76.3306" x="177.7363" y="92.3672">Add Feature</text><line style="stroke:#181818;stroke-width:1.0;" x1="289.1387" x2="331.1387" y1="126.4199" y2="126.4199"/><line style="stroke:#181818;stroke-width:1.0;" x1="331.1387" x2="331.1387" y1="126.4199" y2="139.4199"/><line style="stroke:#181818;stroke-width:1.0;" x1="290.1387" x2="331.1387" y1="139.4199" y2="139.4199"/><polygon fill="#181818" points="300.1387,135.4199,290.1387,139.4199,300.1387,143.4199,296.1387,139.4199" style="stroke:#181818;stroke-width:1.0;"/><text fill="#000000" font-family="sans-serif" font-size="13" font-weight="bold" lengthAdjust="spacing" textLength="8.5757" x="296.1387" y="121.6777">3</text><text fill="#000000" font-family="sans-serif" font-size="13" lengthAdjust="spacing" textLength="131.5361" x="308.7144" y="121.6777">Create Feature entity</text><polygon fill="#181818" points="435.2505,164.7305,445.2505,168.7305,435.2505,172.7305,439.2505,168.7305" style="stroke:#181818;stroke-width:1.0;"/><line style="stroke:#181818;stroke-width:1.0;" x1="289.1387" x2="441.2505" y1="168.7305" y2="168.7305"/><text fill="#000000" font-family="sans-serif" font-size="13" font-weight="bold" lengthAdjust="spacing" textLength="8.5757" x="296.1387" y="163.9883">4</text><text fill="#000000" font-family="sans-serif" font-size="13" lengthAdjust="spacing" textLength="76.959" x="308.7144" y="163.9883">Save feature</text><polygon fill="#181818" points="300.1387,194.041,290.1387,198.041,300.1387,202.041,296.1387,198.041" style="stroke:#181818;stroke-width:1.0;"/><line style="stroke:#181818;stroke-width:1.0;stroke-dasharray:2.0,2.0;" x1="294.1387" x2="446.2505" y1="198.041" y2="198.041"/><text fill="#000000" font-family="sans-serif" font-size="13" font-weight="bold" lengthAdjust="spacing" textLength="8.5757" x="306.1387" y="193.2988">5</text><text fill="#000000" font-family="sans-serif" font-size="13" lengthAdjust="spacing" textLength="48.8833" x="318.7144" y="193.2988">Success</text><polygon fill="#181818" points="169.1606,223.3516,159.1606,227.3516,169.1606,231.3516,165.1606,227.3516" style="stroke:#181818;stroke-width:1.0;"/><line style="stroke:#181818;stroke-width:1.0;stroke-dasharray:2.0,2.0;" x1="163.1606" x2="288.1387" y1="227.3516" y2="227.3516"/><text fill="#000000" font-family="sans-serif" font-size="13" font-weight="bold" lengthAdjust="spacing" textLength="8.5757" x="175.1606" y="222.6094">6</text><text fill="#000000" font-family="sans-serif" font-size="13" lengthAdjust="spacing" textLength="94.4023" x="187.7363" y="222.6094">Return success</text><polygon fill="#181818" points="38.1826,252.6621,28.1826,256.6621,38.1826,260.6621,34.1826,256.6621" style="stroke:#181818;stroke-width:1.0;"/><line style="stroke:#181818;stroke-width:1.0;stroke-dasharray:2.0,2.0;" x1="32.1826" x2="157.1606" y1="256.6621" y2="256.6621"/><text fill="#000000" font-family="sans-serif" font-size="13" font-weight="bold" lengthAdjust="spacing" textLength="8.5757" x="44.1826" y="251.9199">7</text><text fill="#000000" font-family="sans-serif" font-size="13" lengthAdjust="spacing" textLength="94.4023" x="56.7583" y="251.9199">Return success</text><!--SRC=[PP313e8m343l-uhUF25t3YO6uyqBnW-eeo89sx3jJFXxHu81iclVwqlQmrjrbAeinm6zHZSSRN2bq2UIjrIqFNQCpXYC6dnqJs9Z7a8CnGbgv1jwxCYHrmhERGjNGerCPeSMzuAAcJKFTxpc1EclG5hlTTgQ2sbe3D9huAc2Etu9Naiqur1i-_TeBOcinVoGXbB0WwpczfRapm_8j1y0]--></g></svg>