<svg xmlns="http://www.w3.org/2000/svg" xmlns:xlink="http://www.w3.org/1999/xlink" contentStyleType="text/css" height="384px" preserveAspectRatio="none" style="width:470px;height:384px;background:#FFFFFF;" version="1.1" viewBox="0 0 470 384" width="470px" zoomAndPan="magnify"><defs/><g><rect fill="none" height="206.8184" style="stroke:#000000;stroke-width:1.5;" width="453.1074" x="10" y="125.1094"/><rect fill="none" height="59.6211" style="stroke:#000000;stroke-width:1.5;" width="298.1255" x="154.9819" y="149.4199"/><line style="stroke:#181818;stroke-width:0.5;stroke-dasharray:5.0,5.0;" x1="42" x2="42" y1="36.4883" y2="348.9277"/><line style="stroke:#181818;stroke-width:0.5;stroke-dasharray:5.0,5.0;" x1="198.9819" x2="198.9819" y1="36.4883" y2="348.9277"/><rect fill="#E2E2F0" height="30.4883" rx="2.5" ry="2.5" style="stroke:#181818;stroke-width:0.5;" width="44.3652" x="20" y="5"/><text fill="#000000" font-family="sans-serif" font-size="14" lengthAdjust="spacing" textLength="30.3652" x="27" y="25.5352">User</text><rect fill="#E2E2F0" height="30.4883" rx="2.5" ry="2.5" style="stroke:#181818;stroke-width:0.5;" width="44.3652" x="20" y="347.9277"/><text fill="#000000" font-family="sans-serif" font-size="14" lengthAdjust="spacing" textLength="30.3652" x="27" y="368.4629">User</text><rect fill="#E2E2F0" height="30.4883" rx="2.5" ry="2.5" style="stroke:#181818;stroke-width:0.5;" width="68.332" x="164.9819" y="5"/><text fill="#000000" font-family="sans-serif" font-size="14" lengthAdjust="spacing" textLength="54.332" x="171.9819" y="25.5352">CarData</text><rect fill="#E2E2F0" height="30.4883" rx="2.5" ry="2.5" style="stroke:#181818;stroke-width:0.5;" width="68.332" x="164.9819" y="347.9277"/><text fill="#000000" font-family="sans-serif" font-size="14" lengthAdjust="spacing" textLength="54.332" x="171.9819" y="368.4629">CarData</text><polygon fill="#181818" points="187.1479,63.7988,197.1479,67.7988,187.1479,71.7988,191.1479,67.7988" style="stroke:#181818;stroke-width:1.0;"/><line style="stroke:#181818;stroke-width:1.0;" x1="42.1826" x2="193.1479" y1="67.7988" y2="67.7988"/><text fill="#000000" font-family="sans-serif" font-size="13" font-weight="bold" lengthAdjust="spacing" textLength="8.5757" x="49.1826" y="63.0566">1</text><text fill="#000000" font-family="sans-serif" font-size="13" lengthAdjust="spacing" textLength="53.7329" x="61.7583" y="63.0566">Get Cars</text><line style="stroke:#181818;stroke-width:1.0;" x1="199.1479" x2="241.1479" y1="97.1094" y2="97.1094"/><line style="stroke:#181818;stroke-width:1.0;" x1="241.1479" x2="241.1479" y1="97.1094" y2="110.1094"/><line style="stroke:#181818;stroke-width:1.0;" x1="200.1479" x2="241.1479" y1="110.1094" y2="110.1094"/><polygon fill="#181818" points="210.1479,106.1094,200.1479,110.1094,210.1479,114.1094,206.1479,110.1094" style="stroke:#181818;stroke-width:1.0;"/><text fill="#000000" font-family="sans-serif" font-size="13" font-weight="bold" lengthAdjust="spacing" textLength="8.5757" x="206.1479" y="92.3672">2</text><text fill="#000000" font-family="sans-serif" font-size="13" lengthAdjust="spacing" textLength="111.9727" x="218.7236" y="92.3672">Verify car list size</text><path d="M10,125.1094 L72.1387,125.1094 L72.1387,132.4199 L62.1387,142.4199 L10,142.4199 L10,125.1094 " fill="#EEEEEE" style="stroke:#000000;stroke-width:1.5;"/><rect fill="none" height="206.8184" style="stroke:#000000;stroke-width:1.5;" width="453.1074" x="10" y="125.1094"/><text fill="#000000" font-family="sans-serif" font-size="13" font-weight="bold" lengthAdjust="spacing" textLength="17.1387" x="25" y="138.6777">alt</text><text fill="#000000" font-family="sans-serif" font-size="11" font-weight="bold" lengthAdjust="spacing" textLength="93.978" x="87.1387" y="137.7441">[car list verified]</text><path d="M154.9819,149.4199 L229.4287,149.4199 L229.4287,156.7305 L219.4287,166.7305 L154.9819,166.7305 L154.9819,149.4199 " fill="#EEEEEE" style="stroke:#000000;stroke-width:1.5;"/><rect fill="none" height="59.6211" style="stroke:#000000;stroke-width:1.5;" width="298.1255" x="154.9819" y="149.4199"/><text fill="#000000" font-family="sans-serif" font-size="13" font-weight="bold" lengthAdjust="spacing" textLength="29.4468" x="169.9819" y="162.9883">loop</text><text fill="#000000" font-family="sans-serif" font-size="11" font-weight="bold" lengthAdjust="spacing" textLength="75.3027" x="244.4287" y="162.0547">[for each car]</text><line style="stroke:#181818;stroke-width:1.0;" x1="199.1479" x2="241.1479" y1="188.041" y2="188.041"/><line style="stroke:#181818;stroke-width:1.0;" x1="241.1479" x2="241.1479" y1="188.041" y2="201.041"/><line style="stroke:#181818;stroke-width:1.0;" x1="200.1479" x2="241.1479" y1="201.041" y2="201.041"/><polygon fill="#181818" points="210.1479,197.041,200.1479,201.041,210.1479,205.041,206.1479,201.041" style="stroke:#181818;stroke-width:1.0;"/><text fill="#000000" font-family="sans-serif" font-size="13" font-weight="bold" lengthAdjust="spacing" textLength="8.5757" x="206.1479" y="183.2988">3</text><text fill="#000000" font-family="sans-serif" font-size="13" lengthAdjust="spacing" textLength="222.3838" x="218.7236" y="183.2988">Get car by variant Id and add to list</text><line style="stroke:#181818;stroke-width:1.0;" x1="199.1479" x2="241.1479" y1="237.3516" y2="237.3516"/><line style="stroke:#181818;stroke-width:1.0;" x1="241.1479" x2="241.1479" y1="237.3516" y2="250.3516"/><line style="stroke:#181818;stroke-width:1.0;" x1="200.1479" x2="241.1479" y1="250.3516" y2="250.3516"/><polygon fill="#181818" points="210.1479,246.3516,200.1479,250.3516,210.1479,254.3516,206.1479,250.3516" style="stroke:#181818;stroke-width:1.0;"/><text fill="#000000" font-family="sans-serif" font-size="13" font-weight="bold" lengthAdjust="spacing" textLength="8.5757" x="206.1479" y="232.6094">4</text><text fill="#000000" font-family="sans-serif" font-size="13" lengthAdjust="spacing" textLength="159.0215" x="218.7236" y="232.6094">Filter out similar features</text><polygon fill="#181818" points="53.1826,275.6621,43.1826,279.6621,53.1826,283.6621,49.1826,279.6621" style="stroke:#181818;stroke-width:1.0;"/><line style="stroke:#181818;stroke-width:1.0;stroke-dasharray:2.0,2.0;" x1="47.1826" x2="198.1479" y1="279.6621" y2="279.6621"/><text fill="#000000" font-family="sans-serif" font-size="13" font-weight="bold" lengthAdjust="spacing" textLength="8.5757" x="59.1826" y="274.9199">5</text><text fill="#000000" font-family="sans-serif" font-size="13" lengthAdjust="spacing" textLength="103.1875" x="71.7583" y="274.9199">Return response</text><line style="stroke:#000000;stroke-width:1.0;stroke-dasharray:2.0,2.0;" x1="10" x2="463.1074" y1="288.6621" y2="288.6621"/><text fill="#000000" font-family="sans-serif" font-size="11" font-weight="bold" lengthAdjust="spacing" textLength="45.0044" x="15" y="299.2969">[failure]</text><polygon fill="#181818" points="53.1826,319.9277,43.1826,323.9277,53.1826,327.9277,49.1826,323.9277" style="stroke:#181818;stroke-width:1.0;"/><line style="stroke:#181818;stroke-width:1.0;stroke-dasharray:2.0,2.0;" x1="47.1826" x2="198.1479" y1="323.9277" y2="323.9277"/><text fill="#000000" font-family="sans-serif" font-size="13" font-weight="bold" lengthAdjust="spacing" textLength="8.5757" x="59.1826" y="319.1855">6</text><text fill="#000000" font-family="sans-serif" font-size="13" lengthAdjust="spacing" textLength="120.3896" x="71.7583" y="319.1855">Return Bad request</text><!--SRC=[TP0zJmCn38Pt_mflJENs6nW0WLYHO7SlFch9IQwEKwdyUXnK2P3Aa25-F_maDmVthStJj2aLxrblbvgdniVEPU5T4lemoW3KlPQUzsm0RuqDTtVuGFP8JZC-iuzBWylaZ_ZE9kiP5p9KQOvDFXb8_MTo6WxX15hhXcirP5eEGxzQEBQDxFwC9p89R7n9I2LEIkZrknIufAlf9r4F_De7IHQDefN9k_4l_0YCHyxuog4K376hfJ6mDiQLHCF_l_sUKaJY2oySNm00]--></g></svg>