<svg xmlns="http://www.w3.org/2000/svg" xmlns:xlink="http://www.w3.org/1999/xlink" contentStyleType="text/css" height="502px" preserveAspectRatio="none" style="width:1021px;height:502px;background:#FFFFFF;" version="1.1" viewBox="0 0 1021 502" width="1021px" zoomAndPan="magnify"><defs/><g><rect fill="none" height="309.0605" style="stroke:#000000;stroke-width:1.5;" width="1004.7554" x="10" y="141.4199"/><line style="stroke:#181818;stroke-width:0.5;stroke-dasharray:5.0,5.0;" x1="42" x2="42" y1="36.4883" y2="467.4805"/><line style="stroke:#181818;stroke-width:0.5;stroke-dasharray:5.0,5.0;" x1="214.7495" x2="214.7495" y1="36.4883" y2="467.4805"/><line style="stroke:#181818;stroke-width:0.5;stroke-dasharray:5.0,5.0;" x1="427.1782" x2="427.1782" y1="36.4883" y2="467.4805"/><line style="stroke:#181818;stroke-width:0.5;stroke-dasharray:5.0,5.0;" x1="601.7671" x2="601.7671" y1="36.4883" y2="467.4805"/><line style="stroke:#181818;stroke-width:0.5;stroke-dasharray:5.0,5.0;" x1="777.3765" x2="777.3765" y1="36.4883" y2="467.4805"/><line style="stroke:#181818;stroke-width:0.5;stroke-dasharray:5.0,5.0;" x1="936.1392" x2="936.1392" y1="36.4883" y2="467.4805"/><rect fill="#E2E2F0" height="30.4883" rx="2.5" ry="2.5" style="stroke:#181818;stroke-width:0.5;" width="44.3652" x="20" y="5"/><text fill="#000000" font-family="sans-serif" font-size="14" lengthAdjust="spacing" textLength="30.3652" x="27" y="25.5352">User</text><rect fill="#E2E2F0" height="30.4883" rx="2.5" ry="2.5" style="stroke:#181818;stroke-width:0.5;" width="44.3652" x="20" y="466.4805"/><text fill="#000000" font-family="sans-serif" font-size="14" lengthAdjust="spacing" textLength="30.3652" x="27" y="487.0156">User</text><rect fill="#E2E2F0" height="30.4883" rx="2.5" ry="2.5" style="stroke:#181818;stroke-width:0.5;" width="68.332" x="180.7495" y="5"/><text fill="#000000" font-family="sans-serif" font-size="14" lengthAdjust="spacing" textLength="54.332" x="187.7495" y="25.5352">CarData</text><rect fill="#E2E2F0" height="30.4883" rx="2.5" ry="2.5" style="stroke:#181818;stroke-width:0.5;" width="68.332" x="180.7495" y="466.4805"/><text fill="#000000" font-family="sans-serif" font-size="14" lengthAdjust="spacing" textLength="54.332" x="187.7495" y="487.0156">CarData</text><rect fill="#E2E2F0" height="30.4883" rx="2.5" ry="2.5" style="stroke:#181818;stroke-width:0.5;" width="157.5889" x="349.1782" y="5"/><text fill="#000000" font-family="sans-serif" font-size="14" lengthAdjust="spacing" textLength="143.5889" x="356.1782" y="25.5352">CarVariantRepository</text><rect fill="#E2E2F0" height="30.4883" rx="2.5" ry="2.5" style="stroke:#181818;stroke-width:0.5;" width="157.5889" x="349.1782" y="466.4805"/><text fill="#000000" font-family="sans-serif" font-size="14" lengthAdjust="spacing" textLength="143.5889" x="356.1782" y="487.0156">CarVariantRepository</text><rect fill="#E2E2F0" height="30.4883" rx="2.5" ry="2.5" style="stroke:#181818;stroke-width:0.5;" width="171.6094" x="516.7671" y="5"/><text fill="#000000" font-family="sans-serif" font-size="14" lengthAdjust="spacing" textLength="157.6094" x="523.7671" y="25.5352">CarMetadataRepository</text><rect fill="#E2E2F0" height="30.4883" rx="2.5" ry="2.5" style="stroke:#181818;stroke-width:0.5;" width="171.6094" x="516.7671" y="466.4805"/><text fill="#000000" font-family="sans-serif" font-size="14" lengthAdjust="spacing" textLength="157.6094" x="523.7671" y="487.0156">CarMetadataRepository</text><rect fill="#E2E2F0" height="30.4883" rx="2.5" ry="2.5" style="stroke:#181818;stroke-width:0.5;" width="159.7627" x="698.3765" y="5"/><text fill="#000000" font-family="sans-serif" font-size="14" lengthAdjust="spacing" textLength="145.7627" x="705.3765" y="25.5352">CarFeatureRepository</text><rect fill="#E2E2F0" height="30.4883" rx="2.5" ry="2.5" style="stroke:#181818;stroke-width:0.5;" width="159.7627" x="698.3765" y="466.4805"/><text fill="#000000" font-family="sans-serif" font-size="14" lengthAdjust="spacing" textLength="145.7627" x="705.3765" y="487.0156">CarFeatureRepository</text><rect fill="#E2E2F0" height="30.4883" rx="2.5" ry="2.5" style="stroke:#181818;stroke-width:0.5;" width="136.6162" x="868.1392" y="5"/><text fill="#000000" font-family="sans-serif" font-size="14" lengthAdjust="spacing" textLength="122.6162" x="875.1392" y="25.5352">FeatureRepository</text><rect fill="#E2E2F0" height="30.4883" rx="2.5" ry="2.5" style="stroke:#181818;stroke-width:0.5;" width="136.6162" x="868.1392" y="466.4805"/><text fill="#000000" font-family="sans-serif" font-size="14" lengthAdjust="spacing" textLength="122.6162" x="875.1392" y="487.0156">FeatureRepository</text><polygon fill="#181818" points="202.9155,63.7988,212.9155,67.7988,202.9155,71.7988,206.9155,67.7988" style="stroke:#181818;stroke-width:1.0;"/><line style="stroke:#181818;stroke-width:1.0;" x1="42.1826" x2="208.9155" y1="67.7988" y2="67.7988"/><text fill="#000000" font-family="sans-serif" font-size="13" font-weight="bold" lengthAdjust="spacing" textLength="8.5757" x="49.1826" y="63.0566">1</text><text fill="#000000" font-family="sans-serif" font-size="13" lengthAdjust="spacing" textLength="47.106" x="61.7583" y="63.0566">Get Car</text><polygon fill="#181818" points="415.9727,93.1094,425.9727,97.1094,415.9727,101.1094,419.9727,97.1094" style="stroke:#181818;stroke-width:1.0;"/><line style="stroke:#181818;stroke-width:1.0;" x1="214.9155" x2="421.9727" y1="97.1094" y2="97.1094"/><text fill="#000000" font-family="sans-serif" font-size="13" font-weight="bold" lengthAdjust="spacing" textLength="8.5757" x="221.9155" y="92.3672">2</text><text fill="#000000" font-family="sans-serif" font-size="13" lengthAdjust="spacing" textLength="127.1055" x="234.4912" y="92.3672">Get car by variant Id</text><polygon fill="#181818" points="225.9155,122.4199,215.9155,126.4199,225.9155,130.4199,221.9155,126.4199" style="stroke:#181818;stroke-width:1.0;"/><line style="stroke:#181818;stroke-width:1.0;stroke-dasharray:2.0,2.0;" x1="219.9155" x2="426.9727" y1="126.4199" y2="126.4199"/><text fill="#000000" font-family="sans-serif" font-size="13" font-weight="bold" lengthAdjust="spacing" textLength="8.5757" x="231.9155" y="121.6777">3</text><text fill="#000000" font-family="sans-serif" font-size="13" lengthAdjust="spacing" textLength="100.2168" x="244.4912" y="121.6777">Car variant data</text><path d="M10,141.4199 L72.1387,141.4199 L72.1387,148.7305 L62.1387,158.7305 L10,158.7305 L10,141.4199 " fill="#EEEEEE" style="stroke:#000000;stroke-width:1.5;"/><rect fill="none" height="309.0605" style="stroke:#000000;stroke-width:1.5;" width="1004.7554" x="10" y="141.4199"/><text fill="#000000" font-family="sans-serif" font-size="13" font-weight="bold" lengthAdjust="spacing" textLength="17.1387" x="25" y="154.9883">alt</text><text fill="#000000" font-family="sans-serif" font-size="11" font-weight="bold" lengthAdjust="spacing" textLength="115.5269" x="87.1387" y="154.0547">[car variant present]</text><polygon fill="#181818" points="590.5718,176.041,600.5718,180.041,590.5718,184.041,594.5718,180.041" style="stroke:#181818;stroke-width:1.0;"/><line style="stroke:#181818;stroke-width:1.0;" x1="214.9155" x2="596.5718" y1="180.041" y2="180.041"/><text fill="#000000" font-family="sans-serif" font-size="13" font-weight="bold" lengthAdjust="spacing" textLength="8.5757" x="221.9155" y="175.2988">4</text><text fill="#000000" font-family="sans-serif" font-size="13" lengthAdjust="spacing" textLength="107.707" x="234.4912" y="175.2988">Get car metadata</text><polygon fill="#181818" points="225.9155,205.3516,215.9155,209.3516,225.9155,213.3516,221.9155,209.3516" style="stroke:#181818;stroke-width:1.0;"/><line style="stroke:#181818;stroke-width:1.0;stroke-dasharray:2.0,2.0;" x1="219.9155" x2="601.5718" y1="209.3516" y2="209.3516"/><text fill="#000000" font-family="sans-serif" font-size="13" font-weight="bold" lengthAdjust="spacing" textLength="8.5757" x="231.9155" y="204.6094">5</text><text fill="#000000" font-family="sans-serif" font-size="13" lengthAdjust="spacing" textLength="84.4302" x="244.4912" y="204.6094">Car metadata</text><polygon fill="#181818" points="766.2578,234.6621,776.2578,238.6621,766.2578,242.6621,770.2578,238.6621" style="stroke:#181818;stroke-width:1.0;"/><line style="stroke:#181818;stroke-width:1.0;" x1="214.9155" x2="772.2578" y1="238.6621" y2="238.6621"/><text fill="#000000" font-family="sans-serif" font-size="13" font-weight="bold" lengthAdjust="spacing" textLength="8.5757" x="221.9155" y="233.9199">6</text><text fill="#000000" font-family="sans-serif" font-size="13" lengthAdjust="spacing" textLength="100.2041" x="234.4912" y="233.9199">Get car features</text><polygon fill="#181818" points="225.9155,263.9727,215.9155,267.9727,225.9155,271.9727,221.9155,267.9727" style="stroke:#181818;stroke-width:1.0;"/><line style="stroke:#181818;stroke-width:1.0;stroke-dasharray:2.0,2.0;" x1="219.9155" x2="777.2578" y1="267.9727" y2="267.9727"/><text fill="#000000" font-family="sans-serif" font-size="13" font-weight="bold" lengthAdjust="spacing" textLength="8.5757" x="231.9155" y="263.2305">7</text><text fill="#000000" font-family="sans-serif" font-size="13" lengthAdjust="spacing" textLength="84.4302" x="244.4912" y="263.2305">Car metadata</text><polygon fill="#181818" points="924.4473,293.2832,934.4473,297.2832,924.4473,301.2832,928.4473,297.2832" style="stroke:#181818;stroke-width:1.0;"/><line style="stroke:#181818;stroke-width:1.0;" x1="214.9155" x2="930.4473" y1="297.2832" y2="297.2832"/><text fill="#000000" font-family="sans-serif" font-size="13" font-weight="bold" lengthAdjust="spacing" textLength="8.5757" x="221.9155" y="292.541">8</text><text fill="#000000" font-family="sans-serif" font-size="13" lengthAdjust="spacing" textLength="116.0288" x="234.4912" y="292.541">Get feature details</text><polygon fill="#181818" points="225.9155,322.5938,215.9155,326.5938,225.9155,330.5938,221.9155,326.5938" style="stroke:#181818;stroke-width:1.0;"/><line style="stroke:#181818;stroke-width:1.0;stroke-dasharray:2.0,2.0;" x1="219.9155" x2="935.4473" y1="326.5938" y2="326.5938"/><text fill="#000000" font-family="sans-serif" font-size="13" font-weight="bold" lengthAdjust="spacing" textLength="8.5757" x="231.9155" y="321.8516">9</text><text fill="#000000" font-family="sans-serif" font-size="13" lengthAdjust="spacing" textLength="136.3096" x="244.4912" y="321.8516">Return feature details</text><line style="stroke:#181818;stroke-width:1.0;" x1="214.9155" x2="256.9155" y1="355.9043" y2="355.9043"/><line style="stroke:#181818;stroke-width:1.0;" x1="256.9155" x2="256.9155" y1="355.9043" y2="368.9043"/><line style="stroke:#181818;stroke-width:1.0;" x1="215.9155" x2="256.9155" y1="368.9043" y2="368.9043"/><polygon fill="#181818" points="225.9155,364.9043,215.9155,368.9043,225.9155,372.9043,221.9155,368.9043" style="stroke:#181818;stroke-width:1.0;"/><text fill="#000000" font-family="sans-serif" font-size="13" font-weight="bold" lengthAdjust="spacing" textLength="17.1514" x="221.9155" y="351.1621">10</text><text fill="#000000" font-family="sans-serif" font-size="13" lengthAdjust="spacing" textLength="177.9058" x="243.0669" y="351.1621">Wrap data into CarResponse</text><polygon fill="#181818" points="53.1826,394.2148,43.1826,398.2148,53.1826,402.2148,49.1826,398.2148" style="stroke:#181818;stroke-width:1.0;"/><line style="stroke:#181818;stroke-width:1.0;stroke-dasharray:2.0,2.0;" x1="47.1826" x2="213.9155" y1="398.2148" y2="398.2148"/><text fill="#000000" font-family="sans-serif" font-size="13" font-weight="bold" lengthAdjust="spacing" textLength="17.1514" x="59.1826" y="393.4727">11</text><text fill="#000000" font-family="sans-serif" font-size="13" lengthAdjust="spacing" textLength="127.5815" x="80.334" y="393.4727">Return CarResponse</text><line style="stroke:#000000;stroke-width:1.0;stroke-dasharray:2.0,2.0;" x1="10" x2="1014.7554" y1="407.2148" y2="407.2148"/><text fill="#000000" font-family="sans-serif" font-size="11" font-weight="bold" lengthAdjust="spacing" textLength="110.6821" x="15" y="417.8496">[invalid car variant]</text><polygon fill="#181818" points="53.1826,438.4805,43.1826,442.4805,53.1826,446.4805,49.1826,442.4805" style="stroke:#181818;stroke-width:1.0;"/><line style="stroke:#181818;stroke-width:1.0;stroke-dasharray:2.0,2.0;" x1="47.1826" x2="213.9155" y1="442.4805" y2="442.4805"/><text fill="#000000" font-family="sans-serif" font-size="13" font-weight="bold" lengthAdjust="spacing" textLength="17.1514" x="59.1826" y="437.7383">12</text><text fill="#000000" font-family="sans-serif" font-size="13" lengthAdjust="spacing" textLength="120.3896" x="80.334" y="437.7383">Return Bad request</text><!--SRC=[ZP8nJyCm48Nt-nNUc4Bs3Wo0G0miaO3v6XzWoR7TktEb_dji4egXgM2BxttlFTlnnRjgaatV9uz1y-GlnpZrGhjCOQJEEdnZd00mQmnvsX83F0cnwQxC3V8jAcxCFMbTm39Oj6TaLp87Ib6SHZxCu8XijWUpdrNpO66DDLrRK3wE1bicW7uE-Xec9g6WltRmI8eLNzl2j6YmoftMjtnJSKUecMcjuNMM1DQm_nMSIL-IZIqMvmN-I1-egE74zVCWC_h2c3vlsBYWiSu7aXI3q3TU-Fe2ZhajH5weMFVedMr_q7dtDLh3zRc90WKB7m00]--></g></svg>