<svg xmlns="http://www.w3.org/2000/svg" xmlns:xlink="http://www.w3.org/1999/xlink" contentStyleType="text/css" height="343px" preserveAspectRatio="none" style="width:591px;height:343px;background:#FFFFFF;" version="1.1" viewBox="0 0 591 343" width="591px" zoomAndPan="magnify"><defs/><g><rect fill="none" height="149.5078" style="stroke:#000000;stroke-width:1.5;" width="574.397" x="10" y="141.4199"/><line style="stroke:#181818;stroke-width:0.5;stroke-dasharray:5.0,5.0;" x1="42" x2="42" y1="36.4883" y2="307.9277"/><line style="stroke:#181818;stroke-width:0.5;stroke-dasharray:5.0,5.0;" x1="198.9819" x2="198.9819" y1="36.4883" y2="307.9277"/><line style="stroke:#181818;stroke-width:0.5;stroke-dasharray:5.0,5.0;" x1="362.0347" x2="362.0347" y1="36.4883" y2="307.9277"/><line style="stroke:#181818;stroke-width:0.5;stroke-dasharray:5.0,5.0;" x1="512.6235" x2="512.6235" y1="36.4883" y2="307.9277"/><rect fill="#E2E2F0" height="30.4883" rx="2.5" ry="2.5" style="stroke:#181818;stroke-width:0.5;" width="44.3652" x="20" y="5"/><text fill="#000000" font-family="sans-serif" font-size="14" lengthAdjust="spacing" textLength="30.3652" x="27" y="25.5352">User</text><rect fill="#E2E2F0" height="30.4883" rx="2.5" ry="2.5" style="stroke:#181818;stroke-width:0.5;" width="44.3652" x="20" y="306.9277"/><text fill="#000000" font-family="sans-serif" font-size="14" lengthAdjust="spacing" textLength="30.3652" x="27" y="327.4629">User</text><rect fill="#E2E2F0" height="30.4883" rx="2.5" ry="2.5" style="stroke:#181818;stroke-width:0.5;" width="68.332" x="164.9819" y="5"/><text fill="#000000" font-family="sans-serif" font-size="14" lengthAdjust="spacing" textLength="54.332" x="171.9819" y="25.5352">CarData</text><rect fill="#E2E2F0" height="30.4883" rx="2.5" ry="2.5" style="stroke:#181818;stroke-width:0.5;" width="68.332" x="164.9819" y="306.9277"/><text fill="#000000" font-family="sans-serif" font-size="14" lengthAdjust="spacing" textLength="54.332" x="171.9819" y="327.4629">CarData</text><rect fill="#E2E2F0" height="30.4883" rx="2.5" ry="2.5" style="stroke:#181818;stroke-width:0.5;" width="157.5889" x="284.0347" y="5"/><text fill="#000000" font-family="sans-serif" font-size="14" lengthAdjust="spacing" textLength="143.5889" x="291.0347" y="25.5352">CarVariantRepository</text><rect fill="#E2E2F0" height="30.4883" rx="2.5" ry="2.5" style="stroke:#181818;stroke-width:0.5;" width="157.5889" x="284.0347" y="306.9277"/><text fill="#000000" font-family="sans-serif" font-size="14" lengthAdjust="spacing" textLength="143.5889" x="291.0347" y="327.4629">CarVariantRepository</text><rect fill="#E2E2F0" height="30.4883" rx="2.5" ry="2.5" style="stroke:#181818;stroke-width:0.5;" width="122.7734" x="451.6235" y="5"/><text fill="#000000" font-family="sans-serif" font-size="14" lengthAdjust="spacing" textLength="108.7734" x="458.6235" y="25.5352">RedisRepository</text><rect fill="#E2E2F0" height="30.4883" rx="2.5" ry="2.5" style="stroke:#181818;stroke-width:0.5;" width="122.7734" x="451.6235" y="306.9277"/><text fill="#000000" font-family="sans-serif" font-size="14" lengthAdjust="spacing" textLength="108.7734" x="458.6235" y="327.4629">RedisRepository</text><polygon fill="#181818" points="187.1479,63.7988,197.1479,67.7988,187.1479,71.7988,191.1479,67.7988" style="stroke:#181818;stroke-width:1.0;"/><line style="stroke:#181818;stroke-width:1.0;" x1="42.1826" x2="193.1479" y1="67.7988" y2="67.7988"/><text fill="#000000" font-family="sans-serif" font-size="13" font-weight="bold" lengthAdjust="spacing" textLength="8.5757" x="49.1826" y="63.0566">1</text><text fill="#000000" font-family="sans-serif" font-size="13" lengthAdjust="spacing" textLength="47.106" x="61.7583" y="63.0566">Get Car</text><polygon fill="#181818" points="350.8291,93.1094,360.8291,97.1094,350.8291,101.1094,354.8291,97.1094" style="stroke:#181818;stroke-width:1.0;"/><line style="stroke:#181818;stroke-width:1.0;" x1="199.1479" x2="356.8291" y1="97.1094" y2="97.1094"/><text fill="#000000" font-family="sans-serif" font-size="13" font-weight="bold" lengthAdjust="spacing" textLength="8.5757" x="206.1479" y="92.3672">2</text><text fill="#000000" font-family="sans-serif" font-size="13" lengthAdjust="spacing" textLength="127.1055" x="218.7236" y="92.3672">Get car by variant Id</text><polygon fill="#181818" points="210.1479,122.4199,200.1479,126.4199,210.1479,130.4199,206.1479,126.4199" style="stroke:#181818;stroke-width:1.0;"/><line style="stroke:#181818;stroke-width:1.0;stroke-dasharray:2.0,2.0;" x1="204.1479" x2="361.8291" y1="126.4199" y2="126.4199"/><text fill="#000000" font-family="sans-serif" font-size="13" font-weight="bold" lengthAdjust="spacing" textLength="8.5757" x="216.1479" y="121.6777">3</text><text fill="#000000" font-family="sans-serif" font-size="13" lengthAdjust="spacing" textLength="100.2168" x="228.7236" y="121.6777">Car variant data</text><path d="M10,141.4199 L72.1387,141.4199 L72.1387,148.7305 L62.1387,158.7305 L10,158.7305 L10,141.4199 " fill="#EEEEEE" style="stroke:#000000;stroke-width:1.5;"/><rect fill="none" height="149.5078" style="stroke:#000000;stroke-width:1.5;" width="574.397" x="10" y="141.4199"/><text fill="#000000" font-family="sans-serif" font-size="13" font-weight="bold" lengthAdjust="spacing" textLength="17.1387" x="25" y="154.9883">alt</text><text fill="#000000" font-family="sans-serif" font-size="11" font-weight="bold" lengthAdjust="spacing" textLength="115.5269" x="87.1387" y="154.0547">[car variant present]</text><polygon fill="#181818" points="501.0103,176.041,511.0103,180.041,501.0103,184.041,505.0103,180.041" style="stroke:#181818;stroke-width:1.0;"/><line style="stroke:#181818;stroke-width:1.0;" x1="199.1479" x2="507.0103" y1="180.041" y2="180.041"/><text fill="#000000" font-family="sans-serif" font-size="13" font-weight="bold" lengthAdjust="spacing" textLength="8.5757" x="206.1479" y="175.2988">4</text><text fill="#000000" font-family="sans-serif" font-size="13" lengthAdjust="spacing" textLength="98.0459" x="218.7236" y="175.2988">Get similar cars</text><polygon fill="#181818" points="210.1479,205.3516,200.1479,209.3516,210.1479,213.3516,206.1479,209.3516" style="stroke:#181818;stroke-width:1.0;"/><line style="stroke:#181818;stroke-width:1.0;stroke-dasharray:2.0,2.0;" x1="204.1479" x2="512.0103" y1="209.3516" y2="209.3516"/><text fill="#000000" font-family="sans-serif" font-size="13" font-weight="bold" lengthAdjust="spacing" textLength="8.5757" x="216.1479" y="204.6094">5</text><text fill="#000000" font-family="sans-serif" font-size="13" lengthAdjust="spacing" textLength="134.8179" x="228.7236" y="204.6094">Return similar car list</text><polygon fill="#181818" points="53.1826,234.6621,43.1826,238.6621,53.1826,242.6621,49.1826,238.6621" style="stroke:#181818;stroke-width:1.0;"/><line style="stroke:#181818;stroke-width:1.0;stroke-dasharray:2.0,2.0;" x1="47.1826" x2="198.1479" y1="238.6621" y2="238.6621"/><text fill="#000000" font-family="sans-serif" font-size="13" font-weight="bold" lengthAdjust="spacing" textLength="8.5757" x="59.1826" y="233.9199">6</text><text fill="#000000" font-family="sans-serif" font-size="13" lengthAdjust="spacing" textLength="118.3267" x="71.7583" y="233.9199">Return similar cars</text><line style="stroke:#000000;stroke-width:1.0;stroke-dasharray:2.0,2.0;" x1="10" x2="584.397" y1="247.6621" y2="247.6621"/><text fill="#000000" font-family="sans-serif" font-size="11" font-weight="bold" lengthAdjust="spacing" textLength="110.6821" x="15" y="258.2969">[invalid car variant]</text><polygon fill="#181818" points="53.1826,278.9277,43.1826,282.9277,53.1826,286.9277,49.1826,282.9277" style="stroke:#181818;stroke-width:1.0;"/><line style="stroke:#181818;stroke-width:1.0;stroke-dasharray:2.0,2.0;" x1="47.1826" x2="198.1479" y1="282.9277" y2="282.9277"/><text fill="#000000" font-family="sans-serif" font-size="13" font-weight="bold" lengthAdjust="spacing" textLength="8.5757" x="59.1826" y="278.1855">7</text><text fill="#000000" font-family="sans-serif" font-size="13" lengthAdjust="spacing" textLength="120.3896" x="71.7583" y="278.1855">Return Bad request</text><!--SRC=[TP0nQyD038Lt_GfjcLpl6JAqXPBLaEoAJxI2kxCZwGpvzptZj5n3kabFx-aJsdsvpxRl-pbIzfBYopYbtlXQE8_S1Q5FfGH0nQTSqeKLu6Iis1tmZVITdFRumRusS1VkipEfr9q3pvE9JthRZ2CfNcwuR5Cy1dZcnQu5rE8t4Ae25BT5F-AiR9ozlM3W8FO8DqaIQwvc3HuSVv43Uz7S1Z2ADOHgNX_np6d0qHWbBnGbj8V-7t-bWBg-lJ8u1_W6]--></g></svg>